<mxfile host="app.diagrams.net" modified="2024-03-17T02:40:25.410Z" agent="Mozilla/5.0 (Windows NT 10.0; Win64; x64; rv:109.0) Gecko/20100101 Firefox/110.0" etag="ywzghz4ORNFSBccu_ErO" version="24.0.7" type="github">
  <diagram name="第 1 页" id="PQl5gHCGbNmYDHpGPPlx">
    <mxGraphModel dx="1500" dy="769" grid="0" gridSize="10" guides="1" tooltips="1" connect="1" arrows="1" fold="1" page="1" pageScale="1" pageWidth="827" pageHeight="1169" math="0" shadow="0">
      <root>
        <mxCell id="0" />
        <mxCell id="1" parent="0" />
        <mxCell id="PGdHgZi0WwkymQICEL-f-1" value="结束" style="ellipse;whiteSpace=wrap;html=1;" vertex="1" parent="1">
          <mxGeometry x="407" y="683" width="92" height="46" as="geometry" />
        </mxCell>
        <mxCell id="PGdHgZi0WwkymQICEL-f-2" value="登录系统" style="rounded=1;whiteSpace=wrap;html=1;" vertex="1" parent="1">
          <mxGeometry x="383" y="169" width="104" height="31" as="geometry" />
        </mxCell>
        <mxCell id="PGdHgZi0WwkymQICEL-f-3" value="求助列表" style="rounded=1;whiteSpace=wrap;html=1;" vertex="1" parent="1">
          <mxGeometry x="386" y="241" width="104" height="31" as="geometry" />
        </mxCell>
        <mxCell id="PGdHgZi0WwkymQICEL-f-4" value="是否发布求助信息" style="rhombus;whiteSpace=wrap;html=1;" vertex="1" parent="1">
          <mxGeometry x="400" y="307" width="80" height="80" as="geometry" />
        </mxCell>
        <mxCell id="PGdHgZi0WwkymQICEL-f-7" value="求助类型" style="rounded=1;whiteSpace=wrap;html=1;" vertex="1" parent="1">
          <mxGeometry x="390" y="422" width="104" height="31" as="geometry" />
        </mxCell>
        <mxCell id="PGdHgZi0WwkymQICEL-f-10" value="志愿者是否前往" style="rhombus;whiteSpace=wrap;html=1;" vertex="1" parent="1">
          <mxGeometry x="402" y="495" width="80" height="80" as="geometry" />
        </mxCell>
        <mxCell id="PGdHgZi0WwkymQICEL-f-11" value="已解决" style="rounded=1;whiteSpace=wrap;html=1;" vertex="1" parent="1">
          <mxGeometry x="398" y="608" width="104" height="31" as="geometry" />
        </mxCell>
        <mxCell id="PGdHgZi0WwkymQICEL-f-12" value="开始" style="ellipse;whiteSpace=wrap;html=1;" vertex="1" parent="1">
          <mxGeometry x="388" y="92" width="92" height="46" as="geometry" />
        </mxCell>
        <mxCell id="PGdHgZi0WwkymQICEL-f-13" value="" style="endArrow=classic;html=1;rounded=0;entryX=0.5;entryY=0;entryDx=0;entryDy=0;" edge="1" parent="1" target="PGdHgZi0WwkymQICEL-f-2">
          <mxGeometry width="50" height="50" relative="1" as="geometry">
            <mxPoint x="435" y="140" as="sourcePoint" />
            <mxPoint x="485" y="90" as="targetPoint" />
          </mxGeometry>
        </mxCell>
        <mxCell id="PGdHgZi0WwkymQICEL-f-14" value="" style="endArrow=classic;html=1;rounded=0;" edge="1" parent="1">
          <mxGeometry width="50" height="50" relative="1" as="geometry">
            <mxPoint x="434.5" y="202" as="sourcePoint" />
            <mxPoint x="435" y="241" as="targetPoint" />
          </mxGeometry>
        </mxCell>
        <mxCell id="PGdHgZi0WwkymQICEL-f-15" value="" style="endArrow=classic;html=1;rounded=0;" edge="1" parent="1">
          <mxGeometry width="50" height="50" relative="1" as="geometry">
            <mxPoint x="437.5" y="268" as="sourcePoint" />
            <mxPoint x="438" y="307" as="targetPoint" />
          </mxGeometry>
        </mxCell>
        <mxCell id="PGdHgZi0WwkymQICEL-f-16" value="" style="endArrow=classic;html=1;rounded=0;" edge="1" parent="1">
          <mxGeometry width="50" height="50" relative="1" as="geometry">
            <mxPoint x="441.5" y="383" as="sourcePoint" />
            <mxPoint x="442" y="422" as="targetPoint" />
          </mxGeometry>
        </mxCell>
        <mxCell id="PGdHgZi0WwkymQICEL-f-17" value="" style="endArrow=classic;html=1;rounded=0;" edge="1" parent="1">
          <mxGeometry width="50" height="50" relative="1" as="geometry">
            <mxPoint x="439.5" y="453" as="sourcePoint" />
            <mxPoint x="440" y="495" as="targetPoint" />
          </mxGeometry>
        </mxCell>
        <mxCell id="PGdHgZi0WwkymQICEL-f-18" value="" style="endArrow=classic;html=1;rounded=0;" edge="1" parent="1">
          <mxGeometry width="50" height="50" relative="1" as="geometry">
            <mxPoint x="444" y="572" as="sourcePoint" />
            <mxPoint x="444" y="603" as="targetPoint" />
          </mxGeometry>
        </mxCell>
        <mxCell id="PGdHgZi0WwkymQICEL-f-19" value="" style="endArrow=classic;html=1;rounded=0;" edge="1" parent="1">
          <mxGeometry width="50" height="50" relative="1" as="geometry">
            <mxPoint x="448" y="639" as="sourcePoint" />
            <mxPoint x="448.5" y="681" as="targetPoint" />
          </mxGeometry>
        </mxCell>
        <mxCell id="PGdHgZi0WwkymQICEL-f-20" value="" style="endArrow=classic;html=1;rounded=0;" edge="1" parent="1">
          <mxGeometry width="50" height="50" relative="1" as="geometry">
            <mxPoint x="480" y="349" as="sourcePoint" />
            <mxPoint x="493" y="258" as="targetPoint" />
            <Array as="points">
              <mxPoint x="586" y="349" />
              <mxPoint x="584" y="260" />
            </Array>
          </mxGeometry>
        </mxCell>
        <mxCell id="PGdHgZi0WwkymQICEL-f-21" value="n" style="text;html=1;align=center;verticalAlign=middle;resizable=0;points=[];autosize=1;strokeColor=none;fillColor=none;" vertex="1" parent="1">
          <mxGeometry x="560.5" y="277" width="24" height="26" as="geometry" />
        </mxCell>
        <mxCell id="PGdHgZi0WwkymQICEL-f-22" value="y" style="text;html=1;align=center;verticalAlign=middle;resizable=0;points=[];autosize=1;strokeColor=none;fillColor=none;" vertex="1" parent="1">
          <mxGeometry x="443.5" y="385" width="24" height="26" as="geometry" />
        </mxCell>
        <mxCell id="PGdHgZi0WwkymQICEL-f-23" value="" style="endArrow=classic;html=1;rounded=0;entryX=1;entryY=0.5;entryDx=0;entryDy=0;" edge="1" parent="1" target="PGdHgZi0WwkymQICEL-f-7">
          <mxGeometry width="50" height="50" relative="1" as="geometry">
            <mxPoint x="482" y="537" as="sourcePoint" />
            <mxPoint x="601" y="411" as="targetPoint" />
            <Array as="points">
              <mxPoint x="589" y="537" />
              <mxPoint x="585" y="435" />
            </Array>
          </mxGeometry>
        </mxCell>
        <mxCell id="PGdHgZi0WwkymQICEL-f-24" value="n" style="text;html=1;align=center;verticalAlign=middle;resizable=0;points=[];autosize=1;strokeColor=none;fillColor=none;" vertex="1" parent="1">
          <mxGeometry x="545.5" y="468" width="24" height="26" as="geometry" />
        </mxCell>
        <mxCell id="PGdHgZi0WwkymQICEL-f-25" value="y" style="text;html=1;align=center;verticalAlign=middle;resizable=0;points=[];autosize=1;strokeColor=none;fillColor=none;" vertex="1" parent="1">
          <mxGeometry x="451.5" y="569" width="24" height="26" as="geometry" />
        </mxCell>
      </root>
    </mxGraphModel>
  </diagram>
</mxfile>
